# xmcd
#
# Track frame offsets: 
#        150
#        15649
#        29723
#        44772
#        54496
#        70670
#        85644
#        95368
#        109217
#        121866
#        137215
#        151214
#        165813
#        181237
#        196586
#        209460
#        222634
#
# Disc length: 3144 seconds
#
# Revision: 0
# Processed by: cddbd v1.5.2PL0 Copyright (c) Steve Scherf et al.
# Submitted via: ExactAudioCopy v1.0b4
#
DISCID=e60c4611
DTITLE=Muddy Waters - Original Hits and Rarities 1941-1961 Country Blues
DYEAR=1900
DGENRE=Blues
TTITLE0=Country Blues
TTITLE1=I Be's Troubled
TTITLE2=32-30 Blues
TTITLE3=Why Don't You Live So God Can Use You
TTITLE4=Country Blues Number 2
TTITLE5=Rumblin' Kid Blues
TTITLE6=You Got To Take Sick And Die Some Of These Days
TTITLE7=Rosalie
TTITLE8=Joe Turner Blues
TTITLE9=You Gonna Miss Me When I'm  Gone
TTITLE10=A Walk With Me
TTITLE11=Burr Clover Farm Blues
TTITLE12=Pearly May Blues
TTITLE13=I Be Bound To Write To You
TTITLE14=Come To Me Baby
TTITLE15=You Can't Make The Grade
TTITLE16=I'm Gonna Cut Your Head
EXTD=
EXTT0=
EXTT1=
EXTT2=
EXTT3=
EXTT4=
EXTT5=
EXTT6=
EXTT7=
EXTT8=
EXTT9=
EXTT10=
EXTT11=
EXTT12=
EXTT13=
EXTT14=
EXTT15=
EXTT16=
PLAYORDER=
